LG_Walk_Normal12																		
version=1																		
nRows=44																		
nColumns=19																		
inDegrees=yes																		
endheader																		
time	ground_force2_vx	ground_force2_vy	ground_force2_vz	ground_force2_px	ground_force2_py	ground_force2_pz	ground_torque2_x	ground_torque2_y	ground_torque2_z	ground_force1_vx	ground_force1_vy	ground_force1_vz	ground_force1_px	ground_force1_py	ground_force1_pz	ground_torque1_x	ground_torque1_y	ground_torque1_z
6.715	-40.463867	685.238525	-97.848633	0.195528	0	-0.445512	6.00E-06	-0.127374	8.00E-06	0	0	0	-0.13	0	0.305	0	0	0
6.716	-40.22887	678.191406	-97.848633	0.195478	0	-0.44573	1.50E-05	-0.112343	8.00E-06	0	0	0	-0.13	0	0.305	0	0	0
6.717	-39.919632	676.457886	-97.848633	0.19549	0	-0.445784	1.50E-05	-0.03239	8.00E-06	0	0	0	-0.13	0	0.305	0	0	0
6.718	-39.687523	672.18335	-97.613571	0.19549	0	-0.445784	1.10E-05	-0.03239	7.00E-06	0	0	0	-0.13	0	0.305	0	0	0
6.719	-38.594002	669.085632	-97.613571	0.19549	0	-0.445784	1.10E-05	-0.035261	6.00E-06	0	0	0	-0.13	0	0.305	0	0	0
6.72	-38.204746	664.938354	-97.613571	0.195523	0	-0.446722	2.00E-05	-0.035261	6.00E-06	0	0	0	-0.13	0	0.305	0	0	0
6.721	-37.971916	659.451538	-97.300087	0.195393	0	-0.446722	2.00E-05	0.068555	1.00E-05	0	0	0	-0.13	0	0.305	0	0	0
6.722	-36.882004	656.348389	-97.065094	0.195393	0	-0.446849	2.00E-05	0.072093	1.00E-05	0	0	0	-0.13	0	0.305	0	0	0
6.723	-36.72702	651.538818	-96.125008	0.195393	0	-0.446849	2.00E-05	0.072093	8.00E-06	0	0	0	-0.13	0	0.305	0	0	0
6.724	-35.714237	647.592468	-95.732994	0.195311	0	-0.447094	2.80E-05	0.095254	6.00E-06	0	0	0	-0.13	0	0.305	0	0	0
6.725	-35.085655	642.590515	-95.732994	0.195311	0	-0.447191	2.80E-05	0.042237	6.00E-06	0	0	0	-0.13	0	0.305	0	0	0
6.726	-34.152168	634.164429	-95.654739	0.195022	0	-0.44741	2.80E-05	0.03112	6.00E-06	0	0	0	-0.13	0	0.305	0	0	0
6.727	-34.07143	632.621155	-95.262886	0.195022	0	-0.448135	1.80E-05	0.0261	5.00E-06	0	0	0	-0.13	0	0.305	0	0	0
6.728	-32.90583	625.400024	-95.184677	0.195022	0	-0.447627	1.60E-05	0.0261	-1.00E-06	0	0	0	-0.13	0	0.305	0	0	0
6.729	-32.201565	622.485107	-94.714737	0.195005	0	-0.448135	1.60E-05	-0.032027	-1.00E-06	0	0	0	-0.13	0	0.305	0	0	0
6.73	-32.122269	616.972778	-94.479462	0.19499	0	-0.448151	1.80E-05	-0.03737	1.00E-06	0	0	0	-0.13	0	0.305	0	0	0
6.731	-31.113815	611.65448	-94.479301	0.195005	0	-0.44831	1.90E-05	-0.03737	2.00E-06	0	0	0	-0.13	0	0.305	0	0	0
6.732	-30.56525	607.36145	-93.930908	0.194983	0	-0.44831	1.90E-05	-0.03737	2.00E-06	0	0	0	-0.13	0	0.305	0	0	0
6.733	-30.410271	601.671692	-93.617386	0.19511	0	-0.44831	1.70E-05	0.052506	2.00E-06	0	0	0	-0.13	0	0.305	0	0	0
6.734	-29.476059	597.061951	-93.069153	0.194703	0	-0.448945	1.70E-05	0.052506	9.00E-06	0	0	0	-0.13	0	0.305	0	0	0
6.735	-29.319633	592.392334	-92.28569	0.194702	0	-0.448341	2.00E-05	0.058423	9.00E-06	0	0	0	-0.13	0	0.305	0	0	0
6.736	-28.936153	586.730408	-92.050446	0.194702	0	-0.448341	2.00E-05	0.120922	9.00E-06	0	0	0	-0.13	0	0.305	0	0	0
6.737	-28.778286	582.790649	-91.893837	0.194845	0	-0.448341	2.50E-05	0.315367	5.00E-06	0	0	0	-0.13	0	0.305	0	0	0
6.738	-28.234774	575.893188	-91.815544	0.195131	0	-0.44909	1.10E-05	0.339608	7.00E-06	0	0	0	-0.13	0	0.305	0	0	0
6.739	-27.846241	572.472595	-90.796883	0.194904	0	-0.449467	1.50E-05	0.339608	5.00E-06	0	0	0	-0.13	0	0.305	0	0	0
6.74	-27.766224	566.793579	-90.796883	0.194907	0	-0.44909	1.50E-05	0.265573	7.00E-06	0	0	0	-0.13	0	0.305	0	0	0
6.741	-26.9077	559.581055	-90.796883	0.194904	0	-0.449467	1.70E-05	0.265573	4.00E-06	0	0	0	-0.13	0	0.305	0	0	0
6.742	-26.519886	554.418518	-90.326859	0.19474	0	-0.450069	1.80E-05	0.354036	4.00E-06	0	0	0	-0.13	0	0.305	0	0	0
6.743	-26.131355	547.370239	-89.308281	0.194739	0	-0.450128	1.80E-05	0.354036	4.00E-06	0	0	0	-0.13	0	0.305	0	0	0
6.744	-25.115683	541.694031	-88.995041	0.194365	0	-0.450128	1.80E-05	0.327723	7.00E-06	0	0	0	-0.13	0	0.305	0	0	0
6.745	-24.959261	535.679443	-88.681267	0.194365	0	-0.451274	2.50E-05	0.205013	7.00E-06	0	0	0	-0.13	0	0.305	0	0	0
6.746	-24.023603	528.291687	-88.054512	0.194766	0	-0.451274	1.70E-05	0.327723	7.00E-06	0	0	0	-0.13	0	0.305	0	0	0
6.747	-23.325111	524.688354	-87.976219	0.194766	0	-0.451423	1.70E-05	0.395331	4.00E-06	0	0	0	-0.13	0	0.305	0	0	0
6.748	-23.247982	514.378784	-86.722565	0.194475	0	-0.451082	8.00E-06	0.395331	4.00E-06	0	0	0	-0.13	0	0.305	0	0	0
6.749	-22.158791	511.804901	-86.566147	0.194449	0	-0.451374	8.00E-06	0.463699	4.00E-06	0	0	0	-0.13	0	0.305	0	0	0
6.75	-21.999479	504.421051	-85.782516	0.194385	0	-0.451374	1.20E-05	0.272844	3.00E-06	0	0	0	-0.13	0	0.305	0	0	0
6.751	-21.141676	496.846619	-84.920525	0.194385	0	-0.451388	2.00E-05	0.515438	4.00E-06	0	0	0	-0.13	0	0.305	0	0	0
6.752	-20.916061	492.045563	-84.058601	0.194441	0	-0.451802	2.00E-05	0.507248	1.00E-06	0	0	0	-0.13	0	0.305	0	0	0
6.753	-20.521755	482.592255	-83.666954	0.194491	0	-0.451388	1.50E-05	0.572399	1.00E-06	0	0	0	-0.13	0	0.305	0	0	0
6.754	-19.824705	480.190399	-82.961777	0.194549	0	-0.45254	1.20E-05	0.572399	1.00E-06	0	0	0	-0.13	0	0.305	0	0	0
6.755	-19.666838	472.628693	-81.943153	0.194613	0	-0.45254	1.50E-05	0.572399	2.00E-06	0	0	0	-0.13	0	0.305	0	0	0
6.756	-18.814085	463.693848	-81.551422	0.194825	0	-0.45254	1.50E-05	0.670349	2.00E-06	0	0	0	-0.13	0	0.305	0	0	0
6.757	-18.416893	460.784058	-80.611176	0.194825	0	-0.453075	1.50E-05	0.619164	4.00E-06	0	0	0	-0.13	0	0.305	0	0	0
6.758	-17.799137	452.183197	-79.827751	0.194754	0	-0.453618	1.50E-05	0.769528	3.00E-06	0	0	0	-0.13	0	0.305	0	0	0
